<svg width="100" height="30" viewBox="0 0 100 30" fill="none" xmlns="http://www.w3.org/2000/svg">
  <path d="M30 15C30 23.2843 23.2843 30 15 30C6.71573 30 0 23.2843 0 15C0 6.71573 6.71573 0 15 0C23.2843 0 30 6.71573 30 15Z" fill="#4CAF50"/>
  <path d="M15 7L18 12H12L15 7Z" fill="white"/>
  <path d="M15 23L12 18H18L15 23Z" fill="white"/>
  <path d="M7 15L12 12V18L7 15Z" fill="white"/>
  <path d="M23 15L18 18V12L23 15Z" fill="white"/>
  <path d="M40 10H44C46.2091 10 48 11.7909 48 14C48 16.2091 46.2091 18 44 18H40V10ZM44 16C45.1046 16 46 15.1046 46 14C46 12.8954 45.1046 12 44 12H42V16H44Z" fill="#333333"/>
  <path d="M50 10H52V16H57V18H50V10Z" fill="#333333"/>
  <path d="M59 10H61V14H65V10H67V18H65V16H61V18H59V10Z" fill="#333333"/>
  <path d="M69 10H71V16H76V18H69V10Z" fill="#333333"/>
  <path d="M78 10H85V12H80V13H84V15H80V16H85V18H78V10Z" fill="#333333"/>
</svg>
